<?xml version="1.0" standalone="no"?>
<!DOCTYPE svg PUBLIC "-//W3C//DTD SVG 20010904//EN"
 "http://www.w3.org/TR/2001/REC-SVG-20010904/DTD/svg10.dtd">
<svg version="1.0" xmlns="http://www.w3.org/2000/svg"
 width="3000.000000pt" height="3000.000000pt" viewBox="0 0 3000.000000 3000.000000"
 preserveAspectRatio="xMidYMid meet">

<g transform="translate(0.000000,3000.000000) scale(0.100000,-0.100000)"
fill="#000000" stroke="none">
<path d="M9032 28055 c-59 -26 -92 -56 -122 -108 -25 -44 -30 -63 -30 -120 0
-79 18 -128 63 -175 53 -56 102 -76 182 -76 83 0 132 21 187 82 46 51 61 98
56 182 -5 86 -42 151 -112 195 -41 25 -61 30 -120 33 -47 1 -82 -3 -104 -13z"/>
<path d="M9958 28030 c-102 -31 -149 -150 -98 -249 54 -107 218 -114 287 -12
65 96 17 230 -92 260 -45 12 -59 13 -97 1z"/>
<path d="M10680 27793 c-183 -97 -183 -352 0 -446 48 -25 64 -28 126 -25 58 3
80 9 120 33 155 96 156 333 1 429 -38 23 -62 30 -120 33 -65 4 -77 2 -127 -24z"/>
<path d="M9270 27199 c-114 -22 -223 -107 -276 -214 -27 -56 -29 -68 -29 -175
0 -112 1 -117 34 -177 41 -77 113 -146 189 -181 51 -24 69 -27 167 -27 105 0
113 2 174 33 334 174 264 673 -104 741 -67 12 -91 12 -155 0z"/>
<path d="M10143 27191 c-127 -59 -103 -251 34 -277 48 -9 103 9 138 46 39 40
47 128 16 177 -41 66 -117 87 -188 54z"/>
<path d="M11431 27199 c-203 -62 -225 -337 -34 -433 46 -23 153 -21 201 3 139
72 170 261 61 370 -56 56 -155 82 -228 60z"/>
<path d="M11738 26397 c-153 -58 -240 -176 -241 -332 -3 -267 266 -435 508
-316 212 105 257 409 83 566 -68 62 -133 88 -228 92 -55 2 -98 -2 -122 -10z"/>
<path d="M10279 26261 c-73 -29 -137 -80 -179 -143 -47 -70 -64 -140 -58 -239
6 -112 36 -169 156 -287 197 -195 194 -262 -16 -471 -137 -136 -166 -194 -166
-327 -1 -82 3 -97 32 -156 41 -84 100 -143 182 -182 59 -28 74 -31 160 -31 81
0 103 4 152 27 75 35 138 94 179 170 33 61 34 67 34 173 0 144 -14 175 -140
305 -136 140 -167 219 -133 334 13 42 70 105 177 195 199 167 162 487 -71 611
-58 32 -71 35 -163 37 -79 3 -110 -1 -146 -16z"/>
<path d="M9219 26017 c-57 -16 -140 -68 -176 -111 -14 -17 -39 -57 -54 -90
-87 -184 -12 -397 174 -493 74 -38 207 -44 288 -14 155 59 241 184 243 351 0
75 -3 93 -31 152 -62 133 -173 207 -317 214 -48 2 -100 -1 -127 -9z"/>
<path d="M11415 25290 c-225 -34 -396 -234 -395 -464 1 -133 38 -231 126 -325
88 -96 214 -151 344 -151 187 0 343 97 426 266 35 70 39 85 42 176 3 74 0 117
-13 164 -46 168 -199 305 -375 333 -72 12 -82 12 -155 1z"/>
<path d="M9085 24953 c-45 -23 -65 -44 -88 -88 -24 -48 -26 -138 -4 -182 32
-62 115 -113 182 -113 67 0 150 51 182 113 32 62 15 173 -36 231 -47 53 -171
74 -236 39z"/>
<path d="M9640 24339 c-134 -22 -268 -126 -334 -257 -52 -103 -69 -186 -63
-302 10 -166 52 -254 192 -400 194 -203 240 -319 179 -450 -32 -70 -112 -175
-199 -265 -119 -123 -167 -214 -185 -358 -30 -239 84 -464 286 -564 76 -37 80
-38 188 -38 107 0 114 1 189 37 184 88 290 269 290 493 0 171 -49 278 -194
432 -78 83 -109 125 -142 191 -40 82 -42 90 -42 176 0 147 16 172 237 383 163
155 206 439 99 651 -101 201 -296 306 -501 271z"/>
<path d="M11915 24256 c-5 -3 -22 -7 -37 -10 -33 -8 -94 -59 -112 -95 -34 -67
-25 -159 20 -218 66 -87 213 -99 298 -24 66 58 76 198 20 267 -16 21 -46 46
-65 55 -34 18 -105 32 -124 25z"/>
<path d="M10746 24100 c-61 -19 -96 -73 -96 -149 0 -42 5 -56 31 -86 94 -106
259 -45 259 97 0 58 -30 104 -83 128 -46 21 -66 23 -111 10z"/>
<path d="M11080 23532 c-305 -101 -432 -462 -256 -728 19 -28 64 -77 99 -108
123 -109 217 -248 217 -322 0 -75 -98 -213 -256 -358 -121 -112 -174 -224
-174 -371 0 -134 53 -257 151 -350 257 -245 687 -132 790 207 18 58 21 88 17
174 -4 94 -8 110 -42 178 -29 60 -59 98 -144 183 -73 73 -118 129 -142 173
-33 61 -35 71 -35 155 0 73 4 98 22 130 33 61 87 119 150 161 147 97 233 251
233 414 0 184 -106 353 -273 435 -75 37 -84 39 -190 42 -88 2 -124 -1 -167
-15z"/>
<path d="M9020 23068 c-71 -47 -88 -140 -39 -209 62 -88 199 -77 250 21 32 60
19 130 -35 179 -39 37 -128 41 -176 9z"/>
<path d="M15828 22680 c-93 -50 -112 -179 -37 -265 74 -84 222 -66 274 35 22
43 19 125 -6 170 -42 75 -150 103 -231 60z"/>
<path d="M16735 22676 c-105 -49 -159 -134 -159 -251 0 -160 101 -265 264
-273 69 -4 80 -1 139 30 77 40 124 101 141 184 20 93 -2 173 -67 244 -79 89
-211 116 -318 66z"/>
<path d="M15000 22521 c-77 -24 -152 -94 -170 -160 -14 -52 -12 -136 4 -175
22 -53 82 -112 138 -136 103 -44 232 -9 298 81 34 47 54 132 44 186 -9 54 -53
131 -89 159 -61 46 -157 65 -225 45z"/>
<path d="M11794 22481 c-96 -24 -159 -107 -159 -206 1 -122 92 -215 210 -215
162 0 265 182 182 322 -45 77 -147 120 -233 99z"/>
<path d="M17925 22449 c-58 -14 -115 -58 -150 -114 -26 -43 -30 -57 -30 -124
0 -111 47 -190 140 -232 48 -22 151 -25 199 -5 189 79 207 351 29 448 -55 31
-130 41 -188 27z"/>
<path d="M10542 22400 c-45 -28 -76 -97 -67 -150 13 -76 70 -120 154 -120 42
0 56 5 86 31 80 71 67 196 -25 244 -41 21 -109 19 -148 -5z"/>
<path d="M13755 22172 c-175 -84 -182 -332 -12 -417 66 -33 149 -34 210 -4 58
29 75 46 103 101 54 106 17 242 -80 303 -63 38 -160 46 -221 17z"/>
<path d="M18735 22058 c-47 -27 -85 -94 -85 -148 0 -54 38 -121 85 -148 57
-32 138 -27 190 12 88 67 88 205 0 272 -52 39 -133 44 -190 12z"/>
<path d="M16262 22051 c-50 -32 -74 -77 -69 -133 11 -125 154 -194 284 -137
61 27 129 29 166 4 16 -10 41 -43 57 -74 33 -65 61 -94 112 -116 153 -63 293
74 214 209 -51 88 -156 111 -279 62 -36 -14 -74 -26 -84 -26 -36 0 -79 38
-118 105 -52 89 -95 118 -184 123 -53 2 -72 -1 -99 -17z"/>
<path d="M15425 21817 c-65 -22 -99 -43 -139 -88 -58 -64 -80 -121 -80 -209 0
-124 58 -219 169 -278 68 -36 195 -38 267 -5 233 107 236 453 4 561 -60 29
-165 37 -221 19z"/>
<path d="M14387 21705 c-58 -22 -118 -66 -153 -112 -33 -43 -45 -72 -84 -202
-42 -140 -110 -180 -268 -158 -190 27 -276 10 -367 -74 -69 -64 -99 -128 -99
-214 -1 -78 20 -129 71 -177 70 -67 203 -82 305 -36 112 51 162 118 207 274
49 168 163 235 322 188 116 -35 251 -2 334 81 60 60 89 129 89 211 0 62 -3 78
-30 120 -18 30 -48 60 -78 79 -43 26 -60 30 -130 32 -52 2 -95 -3 -119 -12z"/>
<path d="M17487 21646 c-67 -18 -127 -63 -157 -116 -20 -36 -25 -59 -25 -115
0 -60 5 -78 31 -125 82 -146 253 -199 436 -136 175 60 296 8 348 -150 29 -89
68 -144 127 -183 156 -103 362 -69 435 72 32 62 30 156 -5 223 -33 65 -104
128 -173 154 -81 30 -161 27 -275 -11 -74 -24 -106 -30 -152 -27 -78 6 -112
40 -184 185 -60 124 -101 170 -187 209 -65 29 -156 38 -219 20z"/>
<path d="M12955 21581 c-74 -19 -138 -71 -171 -138 -27 -55 -26 -174 3 -228
45 -86 128 -135 228 -135 100 0 182 49 228 135 29 53 30 174 3 225 -25 48 -74
98 -118 121 -42 21 -129 32 -173 20z"/>
<path d="M19434 21540 c-56 -17 -127 -73 -159 -124 -26 -42 -30 -61 -33 -131
-4 -94 17 -153 76 -213 108 -107 300 -101 400 12 57 65 67 93 67 186 0 68 -5
93 -22 126 -29 54 -75 99 -127 126 -46 24 -152 33 -202 18z"/>
<path d="M16375 21434 c-69 -36 -95 -79 -95 -157 0 -95 61 -158 157 -164 76
-5 129 23 161 87 28 56 28 105 -1 160 -41 77 -148 113 -222 74z"/>
<path d="M9290 21379 c-80 -13 -192 -72 -253 -133 -261 -261 -129 -712 232
-796 73 -17 201 -8 274 20 205 77 332 297 297 515 -32 202 -192 364 -390 395
-74 11 -84 11 -160 -1z"/>
<path d="M11691 21024 c-200 -54 -369 -229 -417 -430 -22 -93 -14 -245 16
-333 87 -246 327 -405 589 -388 114 7 204 37 296 99 303 202 344 638 85 898
-72 73 -170 130 -266 155 -73 19 -231 19 -303 -1z"/>
<path d="M15555 20936 c-72 -23 -99 -43 -189 -140 -48 -53 -101 -103 -117
-111 -60 -32 -136 -13 -249 60 -116 75 -127 79 -225 80 -77 0 -98 -4 -146 -26
-150 -71 -210 -218 -141 -350 31 -60 96 -111 165 -130 23 -6 76 -9 117 -7 105
6 182 47 251 135 61 78 114 117 179 133 67 16 141 -5 201 -58 81 -72 122 -87
229 -87 83 1 101 4 146 27 74 39 109 72 138 130 49 99 23 231 -59 294 -78 59
-205 80 -300 50z"/>
<path d="M17448 20680 c-128 -32 -202 -163 -165 -291 49 -168 269 -221 388
-92 44 47 59 87 59 158 0 71 -15 111 -59 158 -53 58 -146 86 -223 67z"/>
<path d="M13368 20437 c-99 -38 -157 -88 -206 -181 -24 -46 -27 -61 -27 -156
0 -100 1 -108 34 -168 39 -71 78 -110 154 -150 47 -24 62 -27 157 -27 96 0
110 3 158 28 29 15 70 45 92 67 22 22 52 63 67 92 25 48 28 62 28 158 0 100
-1 108 -34 168 -39 71 -79 110 -154 149 -43 22 -68 27 -142 30 -59 2 -103 -1
-127 -10z"/>
<path d="M10243 20425 c-157 -49 -277 -201 -290 -367 -17 -225 131 -412 355
-449 135 -22 284 30 375 131 131 146 142 371 27 532 -46 65 -138 131 -213 153
-62 18 -196 19 -254 0z"/>
<path d="M20076 20380 c-73 -19 -175 -81 -228 -139 -132 -144 -163 -348 -79
-526 34 -74 115 -165 179 -202 148 -87 360 -84 501 6 310 199 285 659 -45 823
-80 39 -89 41 -187 44 -56 2 -119 -1 -141 -6z"/>
<path d="M14310 20171 c-74 -16 -135 -64 -173 -136 -30 -56 -29 -163 1 -221
26 -50 92 -109 139 -125 19 -6 65 -9 103 -7 132 7 218 93 228 226 5 76 -13
131 -62 189 -49 58 -155 91 -236 74z"/>
<path d="M16533 20115 c-238 -74 -345 -362 -217 -582 78 -132 251 -211 405
-183 238 43 381 276 311 506 -36 117 -124 211 -237 253 -65 25 -194 28 -262 6z"/>
<path d="M18122 20080 c-118 -32 -207 -84 -298 -175 -153 -152 -217 -337 -193
-552 26 -231 144 -395 379 -528 158 -89 279 -202 331 -309 45 -92 52 -208 19
-305 -26 -79 -76 -158 -148 -236 -133 -144 -192 -288 -192 -470 0 -116 20
-205 64 -297 133 -272 428 -420 726 -364 232 43 420 203 509 434 23 62 25 79
25 222 0 143 -2 160 -25 222 -65 168 -174 292 -329 373 -226 119 -387 276
-407 397 -13 86 89 324 213 493 129 177 170 300 162 484 -9 179 -67 309 -193
436 -132 132 -259 186 -450 192 -97 2 -134 -1 -193 -17z"/>
<path d="M12654 20065 c-72 -36 -104 -89 -104 -175 0 -86 32 -139 104 -175
104 -52 214 -16 267 87 37 73 18 178 -43 235 -60 56 -146 67 -224 28z"/>
<path d="M9243 20046 c-89 -29 -176 -107 -216 -194 -30 -67 -30 -216 1 -285
30 -66 104 -142 171 -174 49 -25 68 -28 151 -28 84 0 102 3 152 28 72 35 130
93 165 165 25 50 28 68 28 152 0 82 -4 103 -27 152 -32 69 -92 129 -165 165
-67 32 -191 42 -260 19z"/>
<path d="M15140 20008 c-37 -20 -70 -75 -70 -118 0 -43 33 -98 70 -118 15 -8
45 -11 74 -9 42 4 55 10 83 41 28 30 33 43 33 86 0 43 -5 56 -33 86 -28 31
-41 37 -83 41 -29 2 -59 -1 -74 -9z"/>
<path d="M11065 19675 c-74 -26 -135 -114 -135 -195 0 -144 156 -250 288 -194
145 60 176 248 59 351 -59 51 -135 65 -212 38z"/>
<path d="M13765 19627 c-79 -45 -106 -141 -62 -227 61 -122 243 -118 302 6 25
52 17 132 -18 177 -51 68 -147 87 -222 44z"/>
<path d="M12129 19517 c-101 -29 -184 -99 -235 -199 -37 -71 -44 -186 -18
-290 24 -101 24 -212 -1 -263 -34 -68 -134 -109 -325 -135 -131 -18 -219 -67
-281 -156 -137 -199 -62 -464 161 -567 36 -16 66 -21 145 -21 94 -1 105 1 166
31 166 82 240 254 195 451 -33 145 -15 259 51 327 55 57 108 76 239 85 92 6
124 12 167 33 84 42 132 90 174 175 36 71 38 82 38 166 0 81 -4 98 -31 156
-62 131 -182 211 -323 217 -42 1 -96 -3 -122 -10z"/>
<path d="M13138 19407 c-66 -19 -122 -61 -160 -120 -29 -46 -33 -61 -37 -135
-3 -73 0 -89 23 -137 100 -203 391 -203 499 0 29 53 31 193 4 242 -66 123
-203 185 -329 150z"/>
<path d="M11451 19200 c-18 -4 -49 -23 -68 -42 -63 -64 -64 -162 0 -225 113
-114 303 -7 267 151 -8 36 -48 89 -80 106 -26 13 -84 18 -119 10z"/>
<path d="M19880 19096 c-167 -36 -307 -180 -355 -363 -19 -74 -19 -223 0 -298
28 -106 74 -184 149 -255 188 -178 212 -204 250 -281 47 -95 56 -169 31 -255
-24 -85 -57 -137 -145 -226 -120 -122 -170 -241 -170 -408 0 -244 138 -448
351 -520 53 -18 81 -21 159 -18 81 3 105 8 162 35 262 123 364 468 222 752
-37 74 -92 136 -189 214 -83 67 -162 161 -197 235 -26 53 -30 71 -24 110 12
87 98 242 201 363 65 76 122 197 136 289 45 298 -137 580 -405 629 -73 13
-105 13 -176 -3z"/>
<path d="M9240 18981 c-69 -21 -131 -74 -166 -141 -28 -53 -26 -181 3 -236 95
-179 357 -188 459 -16 52 87 55 170 8 263 -53 105 -191 164 -304 130z"/>
<path d="M10331 18850 c-93 -20 -186 -100 -215 -188 -9 -25 -16 -78 -16 -117
0 -119 56 -210 164 -268 34 -18 57 -22 136 -22 79 0 102 4 136 22 67 36 101
70 133 135 56 111 39 252 -40 342 -70 80 -190 118 -298 96z"/>
<path d="M12440 18615 c-119 -33 -215 -132 -246 -254 -39 -156 36 -322 181
-399 45 -25 60 -27 160 -27 96 0 116 3 153 23 139 74 213 218 192 373 -28 201
-241 339 -440 284z"/>
<path d="M18998 18573 c-34 -21 -68 -82 -68 -122 0 -172 245 -208 290 -43 15
58 -1 112 -45 151 -31 27 -43 31 -93 31 -35 0 -67 -7 -84 -17z"/>
<path d="M17662 18570 c-125 -26 -212 -138 -212 -275 1 -112 49 -194 143 -242
142 -71 304 -21 375 117 32 61 34 70 30 140 -5 81 -20 119 -70 176 -60 69
-170 103 -266 84z"/>
<path d="M20615 18063 c-126 -34 -143 -216 -25 -275 67 -34 145 -13 187 51 43
63 23 164 -39 205 -26 17 -93 27 -123 19z"/>
<path d="M9543 17819 c-285 -112 -279 -530 9 -635 70 -26 185 -22 251 9 78 36
139 95 173 170 23 51 28 76 29 142 0 71 -4 88 -33 147 -36 73 -87 124 -161
160 -66 32 -196 36 -268 7z"/>
<path d="M12010 17570 c-126 -59 -185 -189 -147 -321 34 -113 128 -182 252
-182 138 0 244 93 261 229 13 105 -47 218 -140 266 -61 31 -167 35 -226 8z"/>
<path d="M10852 17547 c-50 -16 -118 -81 -137 -132 -12 -31 -16 -64 -13 -108
5 -77 36 -132 100 -174 37 -25 50 -28 128 -28 77 0 91 3 128 27 79 53 120 166
93 263 -32 119 -176 192 -299 152z"/>
<path d="M9260 16938 c-57 -30 -83 -76 -77 -139 5 -61 36 -103 92 -124 58 -23
106 -13 151 28 80 73 57 201 -43 243 -45 19 -72 17 -123 -8z"/>
<path d="M10332 16950 c-70 -15 -163 -71 -208 -127 -64 -78 -86 -149 -82 -258
4 -125 34 -183 145 -290 129 -122 173 -203 152 -276 -16 -51 -98 -158 -174
-224 -79 -70 -119 -131 -141 -215 -33 -130 3 -259 100 -356 80 -80 146 -107
268 -108 82 0 91 2 164 39 92 47 150 111 184 202 18 47 21 74 18 148 -4 123
-32 178 -147 293 -109 109 -136 160 -136 259 0 65 3 75 35 122 20 27 67 74
105 104 160 122 210 285 144 463 -30 81 -122 172 -201 202 -67 25 -166 35
-226 22z"/>
<path d="M17830 16725 c-80 -45 -115 -129 -96 -230 16 -83 120 -152 216 -143
181 18 241 264 89 365 -60 40 -147 43 -209 8z"/>
<path d="M11764 16721 c-105 -27 -206 -118 -244 -219 -18 -47 -21 -73 -18
-142 3 -73 9 -94 38 -148 61 -116 154 -173 290 -180 110 -5 177 18 255 89 81
74 109 140 110 254 0 77 -4 98 -26 146 -59 124 -169 199 -302 205 -40 2 -86 0
-103 -5z"/>
<path d="M19113 16590 c-42 -25 -63 -68 -63 -127 0 -94 61 -149 157 -141 142
12 183 193 61 268 -43 26 -113 26 -155 0z"/>
<path d="M9229 16336 c-99 -26 -186 -99 -236 -196 -26 -50 -28 -64 -28 -165 0
-106 1 -112 34 -173 57 -105 151 -172 267 -190 169 -27 325 55 398 208 28 59
31 74 30 160 -1 104 -15 148 -73 227 -81 111 -252 167 -392 129z"/>
<path d="M18298 16277 c-78 -27 -166 -84 -209 -136 -17 -20 -47 -69 -67 -110
-34 -69 -37 -82 -40 -180 -3 -88 0 -117 17 -169 51 -149 153 -252 302 -302 54
-18 81 -21 169 -18 89 3 114 8 165 31 221 103 330 330 270 562 -41 154 -168
283 -324 329 -81 24 -201 20 -283 -7z"/>
<path d="M20665 16276 c-17 -7 -44 -29 -62 -49 -115 -131 -26 -332 146 -331
72 0 132 31 168 86 24 36 28 52 28 113 0 62 -4 77 -28 112 -39 57 -91 83 -163
83 -33 -1 -73 -7 -89 -14z"/>
<path d="M19473 15966 c-101 -33 -182 -103 -229 -196 -23 -46 -29 -71 -32
-150 -7 -162 20 -208 220 -383 108 -93 144 -194 109 -301 -9 -24 -48 -75 -111
-141 -119 -125 -140 -170 -140 -300 0 -61 6 -100 21 -140 29 -77 104 -156 187
-197 61 -30 74 -33 162 -33 86 0 101 3 160 31 265 127 293 483 51 652 -66 47
-152 135 -176 182 -42 81 -5 170 136 328 106 118 142 224 120 351 -32 178
-174 301 -356 308 -49 2 -96 -2 -122 -11z"/>
<path d="M11348 15591 c-217 -70 -356 -295 -321 -521 37 -235 229 -400 468
-400 188 0 348 100 427 267 122 258 -13 570 -283 654 -80 25 -213 25 -291 0z"/>
<path d="M20569 15552 c-67 -22 -139 -70 -173 -115 -69 -90 -97 -208 -76 -312
24 -115 91 -204 195 -258 57 -30 66 -32 170 -32 101 0 114 2 163 28 75 39 124
87 161 157 131 246 -32 535 -308 547 -54 2 -92 -2 -132 -15z"/>
<path d="M9100 15274 c-75 -32 -120 -102 -120 -184 0 -197 251 -273 365 -111
26 37 30 51 30 111 0 60 -4 74 -30 112 -55 78 -160 109 -245 72z"/>
<path d="M18110 14901 c-95 -31 -173 -98 -217 -189 -24 -50 -28 -69 -28 -147
0 -82 3 -97 33 -157 38 -77 92 -130 171 -166 47 -22 70 -27 141 -26 111 0 188
33 260 111 70 76 93 144 88 253 -6 103 -31 164 -98 230 -70 71 -127 95 -235
97 -49 1 -101 -1 -115 -6z"/>
<path d="M10613 14700 c-47 -28 -66 -72 -61 -137 7 -79 65 -133 143 -133 78 0
136 54 143 133 8 97 -46 157 -143 157 -32 0 -62 -7 -82 -20z"/>
<path d="M9585 14642 c-79 -27 -137 -66 -198 -132 -125 -135 -173 -335 -125
-530 23 -96 75 -178 186 -295 115 -120 173 -208 192 -285 24 -100 -41 -222
-220 -415 -142 -153 -190 -261 -190 -430 1 -220 107 -403 286 -492 77 -37 80
-38 194 -38 114 0 117 1 191 37 85 43 146 98 201 183 59 90 83 179 83 305 0
180 -49 290 -194 437 -132 134 -186 243 -186 374 0 65 5 85 34 143 22 46 53
87 93 125 185 173 220 222 252 347 18 72 21 209 5 286 -14 71 -70 182 -119
239 -51 60 -137 117 -212 141 -77 23 -205 24 -273 0z"/>
<path d="M11839 14542 c-58 -37 -89 -97 -89 -171 0 -210 283 -275 376 -86 44
92 23 182 -59 249 -34 27 -48 31 -110 34 -66 3 -76 1 -118 -26z"/>
<path d="M20600 14245 c-165 -52 -233 -262 -130 -403 114 -158 352 -143 445
28 58 108 31 252 -62 329 -68 56 -164 73 -253 46z"/>
<path d="M11062 14150 c-233 -61 -424 -256 -478 -487 -21 -88 -20 -241 1 -324
37 -143 116 -263 251 -378 88 -74 194 -204 237 -290 22 -45 32 -82 35 -125 4
-54 0 -68 -32 -129 -50 -97 -113 -171 -288 -342 -171 -168 -212 -228 -248
-371 -24 -94 -26 -241 -4 -334 32 -138 125 -281 237 -366 125 -95 254 -138
412 -138 261 0 487 139 599 370 54 109 69 187 63 324 -9 215 -56 308 -262 515
-148 148 -194 213 -232 324 -36 106 -26 216 28 323 29 57 135 165 215 219 206
139 313 351 302 598 -9 181 -67 310 -198 441 -85 85 -196 148 -310 175 -90 21
-238 18 -328 -5z"/>
<path d="M18173 13490 c-90 -54 -83 -209 11 -254 72 -34 155 -10 196 56 39 64
17 160 -45 198 -43 26 -119 27 -162 0z"/>
<path d="M19230 13501 c-173 -56 -283 -221 -266 -399 9 -101 42 -159 159 -280
139 -145 167 -205 132 -289 -21 -49 -101 -146 -179 -216 -47 -41 -74 -76 -98
-124 -31 -63 -33 -75 -33 -168 0 -93 2 -105 33 -167 151 -306 608 -261 698 69
39 144 -1 272 -122 388 -129 124 -180 229 -155 321 17 65 68 130 142 184 126
92 173 187 167 336 -5 109 -32 175 -105 247 -75 75 -138 101 -253 104 -52 1
-106 -1 -120 -6z"/>
<path d="M9022 13389 c-43 -28 -62 -67 -62 -126 0 -89 55 -143 145 -143 59 0
101 24 126 72 53 103 -16 218 -131 218 -28 0 -57 -8 -78 -21z"/>
<path d="M20703 13280 c-88 -18 -168 -72 -218 -144 -145 -212 -20 -505 234
-547 146 -24 293 49 367 183 27 50 29 60 29 163 0 126 -13 162 -91 245 -76 81
-211 123 -321 100z"/>
<path d="M18187 12900 c-115 -20 -223 -105 -275 -218 -23 -48 -27 -71 -27
-147 0 -80 3 -97 32 -157 17 -36 50 -85 73 -108 23 -23 72 -56 108 -73 60 -28
77 -32 157 -32 82 0 97 3 157 33 84 41 158 120 188 200 29 75 31 196 4 264
-69 171 -239 268 -417 238z"/>
<path d="M11755 12783 c-79 -41 -115 -103 -115 -196 0 -56 4 -71 33 -113 64
-95 174 -121 278 -66 145 76 145 292 0 369 -53 28 -149 31 -196 6z"/>
<path d="M10565 12726 c-54 -24 -78 -60 -82 -124 -5 -68 17 -111 69 -138 102
-53 218 15 218 127 0 107 -108 178 -205 135z"/>
<path d="M20307 12159 c-110 -26 -240 -123 -296 -222 -49 -86 -64 -157 -59
-268 4 -85 9 -106 40 -171 60 -123 149 -205 276 -249 80 -29 224 -29 306 0
147 52 246 154 297 303 18 53 20 79 17 170 -4 99 -7 113 -41 181 -62 126 -173
218 -302 252 -64 16 -177 18 -238 4z"/>
<path d="M18048 11841 c-74 -24 -131 -87 -143 -161 -8 -48 10 -116 42 -158 78
-104 253 -95 325 17 27 42 29 52 26 118 -3 62 -7 76 -34 110 -17 21 -45 46
-62 56 -35 21 -116 30 -154 18z"/>
<path d="M9228 11681 c-217 -70 -356 -298 -319 -523 25 -156 116 -280 256
-349 76 -38 93 -42 180 -47 118 -6 200 14 283 68 255 166 297 507 89 728 -61
63 -115 97 -198 123 -80 25 -213 25 -291 0z"/>
<path d="M19069 11092 c-156 -81 -187 -293 -62 -418 49 -49 90 -67 168 -72 88
-5 157 21 211 80 48 54 67 101 68 173 1 81 -24 144 -80 195 -60 55 -99 70
-183 70 -56 0 -79 -5 -122 -28z"/>
<path d="M20510 10665 c-187 -60 -246 -318 -105 -460 113 -112 306 -104 410
18 65 76 83 212 40 298 -24 48 -83 107 -130 131 -51 27 -154 33 -215 13z"/>
<path d="M11628 10517 c-136 -51 -223 -153 -249 -291 -26 -142 36 -291 154
-369 100 -66 214 -83 326 -48 107 33 182 102 232 216 32 70 32 197 0 277 -29
75 -95 147 -173 188 -57 31 -72 34 -158 37 -63 2 -107 -1 -132 -10z"/>
<path d="M18158 10511 c-217 -70 -356 -298 -319 -523 26 -157 116 -280 256
-349 76 -38 93 -42 180 -47 118 -6 200 14 283 68 255 166 297 507 89 728 -61
63 -115 97 -198 123 -80 25 -213 25 -291 0z"/>
<path d="M10493 10490 c-112 -45 -204 -167 -218 -291 -13 -109 41 -243 125
-309 71 -56 125 -74 225 -75 79 0 97 3 149 29 77 38 131 93 168 173 79 168 7
374 -158 458 -78 40 -211 46 -291 15z"/>
<path d="M19633 10151 c-64 -24 -98 -47 -148 -102 -62 -69 -80 -120 -80 -229
0 -84 3 -102 28 -152 35 -72 93 -130 165 -165 50 -25 68 -28 152 -28 84 0 102
3 152 28 72 35 130 93 165 165 25 50 28 68 28 152 0 76 -4 104 -22 142 -31 67
-106 143 -172 175 -76 36 -192 42 -268 14z"/>
<path d="M9165 10141 c-22 -10 -55 -34 -72 -54 -107 -122 -39 -318 120 -348
111 -20 223 52 246 158 12 59 7 101 -20 155 -46 92 -176 134 -274 89z"/>
<path d="M18783 9446 c-252 -61 -424 -299 -385 -533 25 -148 123 -278 264
-347 172 -85 354 -85 525 -1 53 26 101 63 182 140 84 79 128 113 187 142 74
36 83 38 173 38 151 0 179 -17 384 -232 54 -57 156 -115 243 -138 68 -18 201
-20 276 -4 193 40 361 200 399 380 31 145 -25 316 -138 420 -100 91 -253 149
-393 149 -74 0 -180 -27 -257 -65 -56 -28 -96 -59 -172 -134 -144 -142 -258
-211 -349 -211 -44 0 -144 45 -216 98 -28 20 -95 78 -148 128 -148 138 -259
185 -433 183 -49 0 -114 -6 -142 -13z"/>
<path d="M11538 9431 c-217 -70 -356 -295 -321 -521 28 -179 155 -328 324
-381 84 -26 210 -26 292 2 171 57 292 200 320 379 35 227 -105 453 -324 521
-80 25 -213 25 -291 0z"/>
<path d="M10305 9277 c-99 -33 -134 -60 -247 -189 -65 -74 -134 -125 -185
-134 -54 -10 -146 41 -255 144 -112 105 -145 126 -229 148 -176 45 -354 -39
-432 -204 -29 -61 -32 -76 -32 -162 0 -87 3 -101 32 -161 39 -79 102 -140 181
-177 50 -24 69 -27 162 -27 98 0 109 2 165 32 43 22 85 58 148 126 104 113
177 157 261 157 89 -1 130 -28 266 -177 26 -29 70 -61 105 -79 54 -26 70 -29
160 -29 88 0 107 3 157 27 76 35 148 104 184 175 27 54 29 66 29 168 0 106 -1
112 -34 173 -68 125 -177 194 -316 199 -48 2 -96 -2 -120 -10z"/>
<path d="M17890 8961 c-48 -26 -72 -62 -77 -118 -6 -66 20 -111 80 -141 64
-33 118 -24 169 28 36 35 38 42 38 98 0 51 -4 65 -27 93 -49 58 -121 74 -183
40z"/>
<path d="M11360 7099 c-214 -22 -400 -148 -489 -332 -50 -101 -65 -177 -65
-317 0 -87 5 -145 17 -190 81 -305 347 -470 694 -431 57 7 129 20 161 30 63
19 65 25 43 108 l-11 40 -57 -20 c-74 -25 -246 -34 -325 -18 -223 47 -358 232
-358 491 0 263 143 457 369 500 107 20 264 5 352 -34 13 -6 20 5 34 59 10 36
16 67 13 70 -2 3 -38 13 -79 24 -92 23 -201 30 -299 20z"/>
<path d="M20545 7099 c-118 -14 -219 -67 -272 -142 -92 -128 -83 -281 22 -395
56 -61 121 -99 277 -162 86 -35 163 -97 184 -147 18 -41 18 -124 1 -166 -19
-44 -87 -103 -134 -116 -53 -15 -188 -13 -248 3 -28 7 -72 23 -99 34 -27 12
-50 22 -51 22 -1 0 -10 -27 -20 -60 -22 -73 -18 -79 70 -109 207 -69 428 -40
549 70 90 82 127 191 106 311 -15 82 -38 124 -99 181 -48 45 -90 68 -283 155
-38 17 -83 43 -102 57 -42 32 -76 98 -76 146 0 52 39 119 88 153 38 27 52 31
135 34 80 4 103 1 171 -22 43 -15 80 -25 81 -24 6 7 35 103 35 114 0 18 -99
53 -168 59 -31 3 -68 7 -82 9 -14 1 -52 -1 -85 -5z"/>
<path d="M14713 7085 c-185 -50 -323 -188 -390 -390 -24 -73 -27 -95 -27 -235
-1 -173 14 -245 77 -365 94 -178 300 -287 516 -271 327 24 531 272 531 644 0
139 -19 230 -71 340 -67 139 -187 238 -334 277 -73 19 -231 19 -302 0z m294
-145 c110 -50 190 -158 228 -305 20 -78 20 -262 0 -340 -39 -150 -114 -254
-223 -307 -60 -30 -75 -33 -157 -33 -79 0 -97 4 -148 28 -155 76 -247 254
-247 477 0 274 138 482 338 508 83 11 139 4 209 -28z"/>
<path d="M16781 7084 c-142 -38 -277 -150 -343 -284 -49 -100 -68 -175 -75
-297 -22 -383 188 -657 520 -680 157 -10 306 41 417 144 108 100 171 237 188
413 36 354 -123 632 -404 705 -73 19 -231 18 -303 -1z m266 -129 c125 -40 228
-173 263 -340 7 -33 13 -103 13 -155 -1 -226 -89 -397 -242 -473 -59 -29 -74
-32 -156 -32 -78 0 -98 4 -145 27 -229 113 -320 478 -190 765 83 182 270 268
457 208z"/>
<path d="M18164 7086 c-91 -17 -135 -32 -205 -67 -235 -117 -364 -396 -316
-682 32 -187 108 -317 234 -399 82 -54 135 -75 231 -94 138 -26 313 -15 480
32 l62 17 0 304 0 303 -202 -2 -203 -3 -3 -62 -3 -62 128 -3 128 -3 3 -179 c2
-116 -1 -183 -8 -191 -14 -17 -120 -35 -206 -35 -264 1 -441 156 -475 417 -38
284 95 504 341 568 87 23 278 16 366 -12 l62 -20 16 61 c16 57 16 61 0 73 -54
39 -308 62 -430 39z"/>
<path d="M8910 7020 l0 -70 190 0 190 0 0 -555 0 -555 80 0 80 0 0 555 0 555
190 0 191 0 -3 68 -3 67 -457 3 -458 2 0 -70z"/>
<path d="M9967 7083 c-4 -3 -7 -285 -7 -625 l0 -618 350 0 350 0 0 70 0 70
-270 0 -270 0 0 220 0 220 245 0 245 0 0 70 0 70 -245 0 -245 0 0 195 0 195
260 0 261 0 -3 68 -3 67 -331 3 c-182 1 -333 -1 -337 -5z"/>
<path d="M11947 7083 c-4 -3 -7 -285 -7 -625 l0 -618 80 0 80 0 0 290 0 290
305 0 305 0 0 -290 0 -290 80 0 80 0 0 625 0 625 -80 0 -80 0 -2 -262 -3 -263
-300 0 -300 0 -3 263 -2 262 -73 0 c-41 0 -77 -3 -80 -7z"/>
<path d="M13150 6465 l0 -625 76 0 77 0 -5 520 -4 520 56 -108 c59 -111 133
-233 407 -672 l160 -255 81 -3 82 -3 0 626 0 625 -75 0 -75 0 1 -392 c0 -216
4 -447 9 -513 4 -66 6 -122 4 -124 -1 -1 -24 39 -50 90 -60 121 -140 254 -377
629 l-193 305 -87 3 -87 3 0 -626z"/>
<path d="M15637 7083 c-4 -3 -7 -285 -7 -625 l0 -618 350 0 351 0 -3 68 -3 67
-267 3 -268 2 0 555 0 555 -73 0 c-41 0 -77 -3 -80 -7z"/>
<path d="M18900 6465 l0 -625 80 0 80 0 -2 623 -3 622 -77 3 -78 3 0 -626z"/>
<path d="M19340 6465 l0 -625 350 0 351 0 -3 68 -3 67 -267 3 -268 2 0 220 0
220 240 0 240 0 0 70 0 70 -240 0 -240 0 0 195 0 195 255 0 255 0 0 70 0 70
-335 0 -335 0 0 -625z"/>
</g>
</svg>
